<svg width="50" height="50" viewBox="0 0 50 50" fill="none" xmlns="http://www.w3.org/2000/svg">
<g clip-path="url(#clip0_206_1318)">
<path d="M25 0H47.6C48.9233 0 50 1.0767 50 2.4V25C50 31.6515 47.3923 37.9223 42.6573 42.6573C37.9223 47.3923 31.6515 50 25 50C18.3485 50 12.0777 47.3923 7.3427 42.6573C2.6077 37.9223 0 31.6515 0 25C0 18.3485 2.6077 12.0777 7.3427 7.3427C12.0777 2.6077 18.3485 0 25 0ZM25 47.6C37.4617 47.6 47.6 37.4617 47.6 25V2.4H25C12.5383 2.4 2.4 12.5383 2.4 25C2.4 37.4617 12.5383 47.6 25 47.6Z" fill="#002DE3"/>
<path d="M15.9 21.8H37.7C38.3628 21.8 38.9 21.2627 38.9 20.6C38.9 19.9373 38.3628 19.4 37.7 19.4H15.9C15.2372 19.4 14.7 19.9373 14.7 20.6C14.7 21.2627 15.2372 21.8 15.9 21.8Z" fill="#002DE3"/>
<path d="M27 31.7H37.7C38.3627 31.7 38.9 31.1627 38.9 30.5C38.9 29.8373 38.3627 29.3 37.7 29.3H27C26.3373 29.3 25.8 29.8373 25.8 30.5C25.8 31.1627 26.3373 31.7 27 31.7Z" fill="#002DE3"/>
</g>
<defs>
<clipPath id="clip0_206_1318">
<rect width="50" height="50" fill="white" transform="matrix(-1 0 0 -1 50 50)"/>
</clipPath>
</defs>
</svg>
